<?xml version="1.0" encoding="UTF-8"?>
<svg width="970px" height="690px" viewBox="0 0 970 690" version="1.1" xmlns="http://www.w3.org/2000/svg" xmlns:xlink="http://www.w3.org/1999/xlink">
    <!-- Generator: Sketch 55.2 (78181) - https://sketchapp.com -->
    <title>undraw_to_do_xvvc</title>
    <desc>Created with Sketch.</desc>
    <g id="Login" stroke="none" stroke-width="1" fill="none" fill-rule="evenodd">
        <g id="Qeydiyyat-ilk-sehfe" transform="translate(-234.000000, -116.000000)">
            <g id="undraw_to_do_xvvc" transform="translate(234.000000, 116.000000)">
                <path d="M969.5,383.028259 C969.460217,449.224116 940.335672,512.077814 889.810462,555.006297 C839.285252,597.934779 772.434765,616.625769 706.896555,606.147914 L347.689143,606.147914 C333.815166,608.046607 319.82747,609 305.823477,609 C169.358323,609 53.7837122,519.707182 14.6921754,396.515645 C5.25709223,366.751103 0.470408254,335.715924 0.5,304.499453 C0.5,136.324658 137.202108,0 305.823477,0 C441.628931,0 556.704536,88.40606 596.36274,210.711934 C637.269851,175.999659 689.249373,156.975282 742.960231,157.057613 C868.058223,157.057613 969.5,258.225658 969.5,383.028259 Z" id="Path" fill="#0050C8" fill-rule="nonzero" opacity="0.0596819196"></path>
                <path d="M883.5,561.087372 C833.787243,599.769096 770.165512,616.094364 707.888222,606.149167 L348.585409,606.149167 C334.707747,608.046905 320.716336,609 306.708624,609 C170.207225,609 54.6019191,519.751922 15.5,396.62236 C44.7460697,334.328328 119.904324,290 208.023231,290 C293.89179,290 367.451112,332.102638 398.211514,391.901199 C413.337815,389.160008 428.681644,387.785852 444.056018,387.795476 C533.054761,387.795476 608.830591,433.025883 637.442164,496.3063 C661.142889,489.147387 685.779181,485.536203 710.544649,485.590951 C783.131076,485.590951 846.927608,515.67149 883.5,561.087372 Z" id="Path" fill="#0050C8" fill-rule="nonzero" opacity="0.0596819196"></path>
                <ellipse id="Oval" fill="#0050C8" fill-rule="nonzero" opacity="0.1" cx="485.5" cy="668.5" rx="431" ry="21.5"></ellipse>
                <path d="M768.616706,210.515385 C767.886361,209.472112 767.485161,208.234434 767.464706,206.961538 C767.464706,199.253077 783.203059,193 802.617647,193 C822.032235,193 837.770588,199.253077 837.770588,206.961538 C837.732341,208.4079 837.220572,209.801875 836.313647,210.93 C857.930588,213.333077 872.5,217.851538 872.5,223.038462 C872.5,230.746923 840.260941,237 800.5,237 C760.739059,237 728.5,230.746923 728.5,223.038462 C728.5,217.572308 744.848235,212.8 768.616706,210.515385 Z" id="Path" fill="#0050C8" fill-rule="nonzero" opacity="0.1"></path>
                <path d="M642.097015,62.3338048 C641.50653,61.4775503 641.180752,60.4648442 641.16061,59.4229137 C641.16061,53.1089109 653.949708,48 669.716742,48 C685.483777,48 698.281311,53.0919378 698.281311,59.4229137 C698.252877,60.6033669 697.841026,61.7419903 697.108696,62.6647808 C714.664179,64.6421499 726.5,68.3338048 726.5,72.5770863 C726.5,78.8826025 700.348151,84 668.004218,84 C635.660286,84 609.5,78.9080622 609.5,72.5770863 C609.5,68.0792079 622.786827,64.2008487 642.097015,62.3338048 Z" id="Path" fill="#0050C8" fill-rule="nonzero" opacity="0.1"></path>
                <path d="M259.079831,117.216882 C258.136501,116.368009 257.473883,115.258547 257.178201,114.032868 C255.480318,106.575574 269.521814,97.1492192 288.512641,92.9764861 C307.503468,88.8037529 324.270067,91.4515113 325.950972,98.9088055 C326.229862,100.313749 326.036097,101.770154 325.399159,103.056402 C347.064153,100.735424 362.302657,101.967134 363.431749,106.977765 C365.129633,114.426681 334.941265,127.405724 296.042754,135.952286 C257.144244,144.498848 224.247751,145.403778 222.566847,137.946484 C221.369839,132.642588 236.35366,124.548491 259.079831,117.216882 Z" id="Path" fill="#0050C8" fill-rule="nonzero" opacity="0.1"></path>
                <path d="M173.5,110.541072 C171.52468,109.413951 168.854182,110.490978 167.497739,112.30272 C166.141296,114.114463 165.759797,116.477242 165.420686,118.673041 C164.666164,123.607326 164.115109,129.276326 167.497739,133 C161.970234,116.49394 146.074416,103.845139 128.5,102" id="Path" stroke="#0050C8" stroke-width="3" opacity="0.1"></path>
                <path d="M345.5,189.538333 C344.22434,188.809384 342.506452,189.538333 341.630499,190.677838 C340.854143,191.920052 340.393222,193.328368 340.286804,194.78341 C339.802053,197.975702 339.436364,201.628823 341.630499,204 C337.819916,193.150616 328.067192,185.388952 316.5,184" id="Path" stroke="#0050C8" stroke-width="3" opacity="0.1"></path>
                <path d="M625.5,138.529954 C624.22434,137.809384 622.506452,138.529954 621.630499,139.66946 C620.852846,140.914147 620.391875,142.325489 620.286804,143.78341 C619.802053,146.967323 619.436364,150.620444 621.630499,153 C617.816464,142.153005 608.065547,134.39278 596.5,133" id="Path" stroke="#0050C8" stroke-width="3" opacity="0.1"></path>
                <path d="M173.5,647.541568 C173.506223,649.709431 173.279932,651.871883 172.824769,653.992874 C172.740381,654.391924 172.647555,654.824228 172.554729,655.165083 C170.158121,664.634204 163.398673,671.559382 155.331218,672 C155.061178,672 154.791137,672 154.487342,672 C145.955755,672 138.740614,664.750594 136.360884,654.766033 C136.293374,654.5 136.234302,654.233967 136.175231,653.934679 C135.720068,651.813688 135.493777,649.651237 135.5,647.483373 C135.5,633.957245 143.997962,623 154.487342,623 C164.976721,623 173.5,634.04038 173.5,647.541568 Z" id="Path" fill="#3F3D56" fill-rule="nonzero"></path>
                <path d="M173.5,647.545936 C173.506228,649.717865 173.279736,651.884371 172.824169,654.009339 C172.739706,654.409137 172.646797,654.842251 172.553888,655.183745 C172.266715,655.183745 171.987989,655.183745 171.709262,655.183745 C169.617648,655.072681 167.538651,654.794126 165.492812,654.350833 C163.680171,654.903317 161.828059,655.320945 159.952063,655.600202 C158.513695,655.813729 157.064273,655.947206 155.610684,656 L154.141034,656 C152.400971,656 150.662826,655.886089 148.938135,655.658506 C146.149203,655.291215 143.410032,654.620808 140.770599,653.659515 C139.325642,654.1339 137.853403,654.523277 136.361649,654.825593 C136.294079,654.559061 136.234955,654.292529 136.175831,653.99268 C135.720264,651.867713 135.493772,649.701206 135.5,647.529278 C135.5,633.977789 144.005518,623 154.504223,623 C165.002929,623 173.5,634.019435 173.5,647.545936 Z" id="Path" fill="#000000" fill-rule="nonzero" opacity="0.1"></path>
                <path d="M213.5,601.400914 C213.507523,595.309599 212.090791,589.302198 209.364298,583.866295 L187.034172,590.868232 L206.638436,579.246549 C199.977242,569.549595 189.312101,563.422662 177.641342,562.588235 C176.72429,561.185386 175.717911,559.844004 174.628547,558.572544 L142.559583,568.637296 L168.864573,553.04246 C158.64544,545.135743 145.186866,542.890597 132.986026,547.057237 C120.785186,551.223878 111.450942,561.252872 108.102326,573.793035 L135.571925,605.67184 L105.773106,583.942866 C90.1717071,595.098314 85.0265275,616.08961 93.6783956,633.286847 C102.330264,650.484085 122.169717,658.70046 140.314756,652.60098 C148.255952,655.543879 156.934298,655.785908 165.024736,653.290114 C176.448807,655.824832 188.396877,653.005133 197.517939,645.621839 C206.639,638.238546 211.950801,627.08677 211.963572,615.294186 C211.963572,614.443404 211.963572,613.592622 211.87918,612.74184 C212.972736,609.063136 213.518791,605.24121 213.5,601.400914 Z" id="Path" fill="#3F71E2" fill-rule="nonzero"></path>
                <path d="M212.5,608.885356 C200.744577,606.645074 188.689915,606.490492 176.881491,608.428606 C163.514034,610.653148 149.85214,615.542064 136.779121,611.972647 C129.106924,609.874981 122.477877,605.019898 114.982343,602.32169 C107.75041,599.784869 99.960036,599.316363 92.4789149,600.968357 C86.6566386,614.973023 89.5134154,631.106834 99.785132,642.230635 C110.056849,653.354437 125.847334,657.414763 140.169357,652.614935 C148.085424,655.540715 156.736309,655.781337 164.801146,653.30006 C176.189067,655.820035 188.099329,653.016736 197.191528,645.67639 C206.283728,638.336044 211.57872,627.249136 211.59145,615.525147 C211.59145,614.679314 211.59145,613.833481 211.507325,612.987647 C211.913132,611.639649 212.244529,610.27013 212.5,608.885356 Z" id="Path" fill="#000000" fill-rule="nonzero" opacity="0.0510370164"></path>
                <path d="M857.59588,605.172821 L892.134029,584.919605 C887.464836,576.958682 881.49688,569.828667 874.475363,563.822506 L809.32039,584.075721 L860.373838,554.168473 C834.652307,540.130113 803.404834,540.659002 778.176673,555.559728 C752.948512,570.460453 737.485169,597.520773 737.5,626.742496 C737.5,672.413498 774.663669,674 820.499977,674 C866.336285,674 903.5,672.413498 903.5,626.742496 C903.513558,615.184267 901.08676,603.752458 896.377191,593.189669 L857.59588,605.172821 Z" id="Path" fill="#3F71E2" fill-rule="nonzero"></path>
                <path d="M868.069191,650.593697 C864.554619,646.78628 860.186749,643.839964 855.861122,641.011838 C849.60079,636.866734 843.129246,632.628767 835.762161,631.218925 C829.282169,629.977926 822.599412,631.024755 816.018037,630.644858 C804.559979,629.947939 793.773226,625.00859 785.763991,616.791262 C781.058181,611.928575 777.357742,605.959963 771.697253,602.24541 C765.597442,598.243823 757.858624,597.382722 750.626716,598.378897 C748.52583,598.68506 746.444122,599.110673 744.39173,599.653665 C741.144423,608.656127 739.489187,618.154468 739.5,627.723868 C739.5,673.412873 776.572032,675 822.295266,675 C844.481004,675 864.630656,674.628545 879.5,669.022946 L877.016144,664.379755 C874.430905,659.533951 871.794976,654.637495 868.069191,650.593697 Z" id="Path" fill="#000000" fill-rule="nonzero" opacity="0.0510370164"></path>
            </g>
        </g>
    </g>
</svg>