<?xml version="1.0" encoding="UTF-8"?>
<svg width="422px" height="258px" viewBox="0 0 422 258" version="1.1" xmlns="http://www.w3.org/2000/svg" xmlns:xlink="http://www.w3.org/1999/xlink">
    <!-- Generator: Sketch 55.2 (78181) - https://sketchapp.com -->
    <title>thanks image</title>
    <desc>Created with Sketch.</desc>
    <defs>
        <linearGradient x1="50%" y1="100%" x2="50%" y2="3.67537947e-14%" id="linearGradient-1">
            <stop stop-color="#808080" stop-opacity="0.25" offset="0%"></stop>
            <stop stop-color="#808080" stop-opacity="0.12" offset="54%"></stop>
            <stop stop-color="#808080" stop-opacity="0.1" offset="100%"></stop>
        </linearGradient>
        <linearGradient x1="0.00646579594%" y1="50%" x2="100.006466%" y2="50%" id="linearGradient-2">
            <stop stop-color="#808080" stop-opacity="0.25" offset="0%"></stop>
            <stop stop-color="#808080" stop-opacity="0.12" offset="54%"></stop>
            <stop stop-color="#808080" stop-opacity="0.1" offset="100%"></stop>
        </linearGradient>
        <linearGradient x1="0%" y1="50%" x2="100%" y2="50%" id="linearGradient-3">
            <stop stop-color="#808080" stop-opacity="0.25" offset="0%"></stop>
            <stop stop-color="#808080" stop-opacity="0.12" offset="54%"></stop>
            <stop stop-color="#808080" stop-opacity="0.1" offset="100%"></stop>
        </linearGradient>
        <linearGradient x1="50%" y1="100%" x2="50%" y2="1.83768973e-14%" id="linearGradient-4">
            <stop stop-color="#808080" stop-opacity="0.25" offset="0%"></stop>
            <stop stop-color="#808080" stop-opacity="0.12" offset="54%"></stop>
            <stop stop-color="#808080" stop-opacity="0.1" offset="100%"></stop>
        </linearGradient>
        <linearGradient x1="50.0008533%" y1="100%" x2="50.0008533%" y2="0%" id="linearGradient-5">
            <stop stop-color="#808080" stop-opacity="0.25" offset="0%"></stop>
            <stop stop-color="#808080" stop-opacity="0.12" offset="54%"></stop>
            <stop stop-color="#808080" stop-opacity="0.1" offset="100%"></stop>
        </linearGradient>
        <linearGradient x1="50.0012381%" y1="100%" x2="50.0012381%" y2="0%" id="linearGradient-6">
            <stop stop-color="#808080" stop-opacity="0.25" offset="0%"></stop>
            <stop stop-color="#808080" stop-opacity="0.12" offset="54%"></stop>
            <stop stop-color="#808080" stop-opacity="0.1" offset="100%"></stop>
        </linearGradient>
        <linearGradient x1="49.999138%" y1="100%" x2="49.999138%" y2="1.60681221e-05%" id="linearGradient-7">
            <stop stop-color="#808080" stop-opacity="0.25" offset="0%"></stop>
            <stop stop-color="#808080" stop-opacity="0.12" offset="54%"></stop>
            <stop stop-color="#808080" stop-opacity="0.1" offset="100%"></stop>
        </linearGradient>
        <linearGradient x1="75.00392%" y1="88.3573159%" x2="17.9211664%" y2="44.0569113%" id="linearGradient-8">
            <stop stop-color="#808080" stop-opacity="0.25" offset="0%"></stop>
            <stop stop-color="#808080" stop-opacity="0.12" offset="53.514%"></stop>
            <stop stop-color="#808080" stop-opacity="0.1" offset="100%"></stop>
        </linearGradient>
    </defs>
    <g id="Login" stroke="none" stroke-width="1" fill="none" fill-rule="evenodd">
        <g id="Teshekkur-edirik" transform="translate(-498.000000, -178.000000)" fill-rule="nonzero">
            <g id="thanks-image" transform="translate(498.000000, 178.000000)">
                <g id="undraw_opened_gi4n" transform="translate(91.000000, 50.000000)">
                    <polygon id="Rectangle" fill="url(#linearGradient-1)" transform="translate(43.159878, 138.660773) rotate(-16.600000) translate(-43.159878, -138.660773) " points="5.3544582 115.421937 80.9703494 115.413716 80.965297 161.899609 5.34940587 161.90783"></polygon>
                    <polygon id="Rectangle" fill="#FFFFFF" transform="translate(42.706796, 138.380851) rotate(-16.600000) translate(-42.706796, -138.380851) " points="6.18270617 116.692808 79.2356014 116.684866 79.2308862 160.068893 6.17799096 160.076836"></polygon>
                    <g id="Group" opacity="0.6" transform="translate(5.408257, 127.445087)">
                        <polygon id="Rectangle" fill="#D43C33" transform="translate(5.531851, 4.803001) rotate(163.400000) translate(-5.531851, -4.803001) " points="0.885480224 1.36350195 10.1789695 1.36249155 10.1782218 8.24249985 0.884732468 8.24351025"></polygon>
                        <polygon id="Rectangle" fill="#F55F44" transform="translate(29.971134, 13.908736) rotate(163.400000) translate(-29.971134, -13.908736) " points="12.1264339 12.795568 47.8160769 12.7916877 47.8158345 15.0219045 12.1261915 15.0257847"></polygon>
                        <polygon id="Rectangle" fill="#F55F44" transform="translate(36.089697, 17.513683) rotate(163.400000) translate(-36.089697, -17.513683) " points="23.0779915 16.7711913 49.1015643 16.7683619 49.1014026 18.256175 23.0778298 18.2590043"></polygon>
                    </g>
                    <polygon id="Rectangle" fill="url(#linearGradient-2)" transform="translate(218.339693, 30.046017) rotate(-78.980000) translate(-218.339693, -30.046017) " points="195.099148 -7.75952055 241.585872 -7.76298299 241.580238 67.8515546 195.093513 67.855017"></polygon>
                    <polygon id="Rectangle" fill="#FFFFFF" transform="translate(218.066546, 29.593289) rotate(-78.980000) translate(-218.066546, -29.593289) " points="196.376865 -6.93088876 239.761669 -6.93412017 239.756226 66.1174674 196.371422 66.1206988"></polygon>
                    <g id="Group" opacity="0.6" transform="translate(187.486239, 5.109827)" fill="#F9C622">
                        <polygon id="Rectangle" transform="translate(5.246792, 4.316116) rotate(-168.980000) translate(-5.246792, -4.316116) " points="0.599874139 0.875704253 9.89319706 0.876396697 9.89370951 7.75652812 0.600386589 7.75583567"></polygon>
                        <polygon id="Rectangle" transform="translate(22.680777, 23.723147) rotate(-168.980000) translate(-22.680777, -23.723147) " points="4.83619161 22.606689 40.5251957 22.6093482 40.5253618 24.8396049 4.83635772 24.8369457"></polygon>
                        <polygon id="Rectangle" transform="translate(26.431223, 29.758921) rotate(-168.980000) translate(-26.431223, -29.758921) " points="13.4196142 29.0140317 39.4427211 29.0159706 39.442832 30.5038103 13.419725 30.5018713"></polygon>
                    </g>
                    <polygon id="Rectangle" fill="url(#linearGradient-3)" transform="translate(225.556017, 134.043525) rotate(-23.450000) translate(-225.556017, -134.043525) " points="202.325565 96.2275375 248.797432 96.2208004 248.78647 171.859513 202.314602 171.86625"></polygon>
                    <polygon id="Rectangle" fill="#FFFFFF" transform="translate(225.772648, 133.561716) rotate(-23.450000) translate(-225.772648, -133.561716) " points="204.092474 97.0273884 247.463413 97.0211008 247.452822 170.096044 204.081883 170.102332"></polygon>
                    <g id="Group" opacity="0.6" transform="translate(213.025229, 95.583815)" fill="#009D49">
                        <polygon id="Rectangle" transform="translate(15.020932, 5.681918) rotate(-113.450000) translate(-15.020932, -5.681918) " points="10.3722863 2.24227813 19.6685805 2.24362548 19.6695776 9.121558 10.3732835 9.12021065"></polygon>
                        <polygon id="Rectangle" transform="translate(8.894363, 31.041212) rotate(-113.450000) translate(-8.894363, -31.041212) " points="-8.95600541 29.9238528 26.7444091 29.929027 26.7447323 32.1585709 -8.95568219 32.1533967"></polygon>
                        <polygon id="Rectangle" transform="translate(6.044508, 37.546685) rotate(-113.450000) translate(-6.044508, -37.546685) " points="-6.97131299 36.8011164 19.060114 36.8048892 19.0603297 38.2922534 -6.97109737 38.2884806"></polygon>
                    </g>
                    <polygon id="Rectangle" fill="url(#linearGradient-4)" transform="translate(63.875558, 34.876290) rotate(-19.530000) translate(-63.875558, -34.876290) " points="26.0700667 11.638352 101.686863 11.6288913 101.681049 58.1142278 26.0642525 58.1236885"></polygon>
                    <polygon id="Rectangle" fill="#FFFFFF" transform="translate(63.410771, 34.625254) rotate(-19.530000) translate(-63.410771, -34.625254) " points="26.8865994 12.9380694 99.940369 12.9289293 99.9349428 56.3124381 26.8811732 56.3215782"></polygon>
                    <g id="Group" opacity="0.6" transform="translate(25.538991, 25.248555)" fill="#6A296D">
                        <polygon id="Rectangle" transform="translate(5.810921, 4.892851) rotate(160.470000) translate(-5.810921, -4.892851) " points="1.16455057 1.45346963 10.4581511 1.45230686 10.4572906 8.33223285 1.16369006 8.33339561"></polygon>
                        <polygon id="Rectangle" transform="translate(30.683191, 12.741535) rotate(160.470000) translate(-30.683191, -12.741535) " points="12.8382957 11.6286725 48.5283659 11.6242072 48.5280869 13.8543973 12.8380168 13.8588626"></polygon>
                        <polygon id="Rectangle" transform="translate(36.977133, 16.029017) rotate(160.470000) translate(-36.977133, -16.029017) " points="23.9652843 15.2867474 49.9891686 15.2834914 49.9889825 16.7712866 23.9650982 16.7745426"></polygon>
                    </g>
                    <polygon id="Path" fill="url(#linearGradient-5)" points="131.198303 2.7683237 43.1638991 85.676763 43.1638991 207.762543 219.229702 207.762543 219.229702 85.676763"></polygon>
                    <polygon id="Path" fill="#FFFFFF" points="218.337339 205.084393 44.0562615 205.084393 44.0562615 85.4783815 131.198303 4.25618497 218.337339 85.4783815"></polygon>
                    <rect id="Rectangle" fill="url(#linearGradient-6)" x="70.5266743" y="20.9172254" width="121.340252" height="142.810636"></rect>
                    <rect id="Rectangle" fill="#FFFFFF" x="72.0590138" y="22.1075145" width="118.275573" height="141.620347"></rect>
                    <polygon id="Path" fill="#F5F5F5" points="44.0562615 85.4783815 131.198303 145.281387 44.0562615 205.084393"></polygon>
                    <polygon id="Path" fill="#F5F5F5" points="218.337339 85.4783815 131.198303 145.281387 218.337339 205.084393"></polygon>
                    <path d="M44.0562615,205.081387 L127.776078,139.919075 C129.781192,138.340024 132.6064,138.340024 134.611514,139.919075 L218.337339,205.081387 L44.0562615,205.081387 Z" id="Path" fill="url(#linearGradient-7)"></path>
                    <path d="M44.0562615,205.081387 L127.776078,142.765549 C129.80475,141.25607 132.582842,141.25607 134.611514,142.765549 L218.337339,205.081387 L44.0562615,205.081387 Z" id="Path" fill="#FFFFFF"></path>
                    <rect id="Rectangle" fill="#C4D1E2" x="90.0054128" y="49.4781503" width="24.6856881" height="4.16601156"></rect>
                    <rect id="Rectangle" fill="#F5F5F5" x="90.0054128" y="60.4883237" width="82.3827752" height="4.16601156"></rect>
                    <rect id="Rectangle" fill="#F5F5F5" x="90.0054128" y="67.627052" width="82.3827752" height="4.16601156"></rect>
                    <rect id="Rectangle" fill="#F5F5F5" x="90.0054128" y="74.7687861" width="82.3827752" height="4.16601156"></rect>
                    <rect id="Rectangle" fill="#F5F5F5" x="90.0054128" y="81.9075145" width="82.3827752" height="4.16601156"></rect>
                    <rect id="Rectangle" fill="#F5F5F5" x="90.0054128" y="89.0492486" width="37.473211" height="4.16601156"></rect>
                    <rect id="Rectangle" fill="#C4D1E2" x="134.914977" y="89.0492486" width="37.473211" height="4.16601156"></rect>
                </g>
                <g id="Group-2" transform="translate(378.000000, 0.000000)">
                    <polygon id="Path" fill="#0286CD" points="5.99876236 11.4297497 -7.10542736e-14 21.8576078 43.9841825 29.0387065 15.6551331 9.25885953"></polygon>
                    <polygon id="Path" fill="#000000" opacity="0.2" points="5.99876236 11.4297497 -7.10542736e-14 21.8576078 43.9841825 29.0387065 15.6551331 9.25885953"></polygon>
                    <polygon id="Path" fill="#0286CD" points="13.2225951 -2.82440737e-13 43.9841825 29.0387065 5.99876236 11.4297497"></polygon>
                    <polygon id="Path" fill="#0286CD" points="1.62244106 27.9868707 43.8643346 28.7961196 4.4295038 14.7516134"></polygon>
                </g>
                <g id="Group-3" transform="translate(0.000000, 113.000000)">
                    <polygon id="Path" fill="url(#linearGradient-8)" points="1.41085957 33.4767587 1.08357767e-13 34.1655047 0.162244106 33.8771042 0.0384262357 33.916949 0.212055894 33.788402 19.2007835 7.10542736e-15 28.9074404 8.27538833 37.234548 15.9839368 34.8435823 17.1512949 37.5315212 21.8918791"></polygon>
                    <polygon id="Path" fill="#0050C8" points="27.9458357 9.15956372 35.5570768 16.2158905 1.05885627 33.3648137 19.4175834 9.8373999"></polygon>
                    <polygon id="Path" fill="#000000" opacity="0.2" points="27.9458357 9.15956372 35.5570768 16.2158905 1.05885627 33.3648137 19.4175834 9.8373999"></polygon>
                    <polygon id="Path" fill="#0050C8" points="19.0679521 1.59047215 1.05885627 33.3648137 27.9458357 9.15956372"></polygon>
                    <polygon id="Path" fill="#0050C8" points="35.7790951 21.6788991 1.09585932 33.134283 30.0886914 11.4942801"></polygon>
                </g>
                <polygon id="Path" fill="url(#linearGradient-8)" points="1.41085957 146.476759 -1.31450406e-13 147.165505 0.162244106 146.877104 0.0384262357 146.916949 0.212055894 146.788402 19.2007835 113 28.9074404 121.275388 37.234548 128.983937 34.8435823 130.151295 37.5315212 134.891879"></polygon>
                <polygon id="Path" fill="#0286CD" points="27.9458357 122.159564 35.5570768 129.21589 1.05885627 146.364814 19.4175834 122.8374"></polygon>
                <polygon id="Path" fill="#000000" opacity="0.2" points="27.9458357 122.159564 35.5570768 129.21589 1.05885627 146.364814 19.4175834 122.8374"></polygon>
                <polygon id="Path" fill="#0286CD" points="19.0679521 114.590472 1.05885627 146.364814 27.9458357 122.159564"></polygon>
                <polygon id="Path" fill="#0286CD" points="35.7790951 134.678899 1.09585932 146.134283 30.0886914 124.49428"></polygon>
            </g>
        </g>
    </g>
</svg>